<svg xmlns="http://www.w3.org/2000/svg" viewBox="0 0 512 512" width="512" height="512">
  <defs>
    <linearGradient id="mainGrad" x1="0" y1="0" x2="1" y2="1">
      <stop offset="0%" stop-color="#0b8f8f"/>
      <stop offset="100%" stop-color="#2acfd3"/>
    </linearGradient>
    <linearGradient id="bg" x1="0" y1="0" x2="1" y2="1">
      <stop offset="0%" stop-color="#e6fafa"/>
      <stop offset="100%" stop-color="#ccf7f7"/>
    </linearGradient>
    <filter id="drop" x="-30%" y="-30%" width="160%" height="160%">
      <feDropShadow dx="0" dy="6" stdDeviation="10" flood-color="#0b5a5a" flood-opacity="0.25"/>
    </filter>
  </defs>

  <rect width="100%" height="100%" rx="56" fill="url(#bg)"/>
  <circle cx="256" cy="256" r="190" fill="rgba(255,255,255,0.35)"/>
  <circle cx="256" cy="230" r="110" fill="none" stroke="url(#mainGrad)" stroke-width="38" stroke-linecap="round" filter="url(#drop)"/>
  <path d="M310 300 C340 330 355 365 330 380" fill="none" stroke="url(#mainGrad)" stroke-width="26" stroke-linecap="round" filter="url(#drop)"/>
  <path d="M190 140 Q256 100 320 150" fill="none" stroke="#ffffff" stroke-opacity="0.4" stroke-width="10" stroke-linecap="round"/>
  <circle cx="256" cy="230" r="68" fill="none" stroke="#ffffff" stroke-opacity="0.25" stroke-width="8"/>
  <g transform="translate(256,230) scale(0.45) translate(-136,-136)">
    <path d="M200,164a36.05663,36.05663,0,0,0-33.93579,24H72a28,28,0,0,1,0-56h96a44,44,0,0,0,0-88H72a12,12,0,0,0,0,24h96a20,20,0,0,1,0,40H72a52,52,0,0,0,0,104h94.06421A35.99779,35.99779,0,1,0,200,164Zm0,48a12,12,0,1,1,12-12A12.01312,12.01312,0,0,1,200,212Z" fill="url(#mainGrad)"/>
  </g>
</svg>
